<mxfile host="app.diagrams.net" modified="2024-04-23T09:27:28.498Z" agent="Mozilla/5.0 (Windows NT 10.0; Win64; x64) AppleWebKit/537.36 (KHTML, like Gecko) Chrome/123.0.0.0 Safari/537.36" etag="trzysFUBGtynVE9T1b7o" version="24.0.1" type="github">
  <diagram name="Page-1" id="FPIdoWPQeFc5p-aKN6lN">
    <mxGraphModel dx="2759" dy="949" grid="1" gridSize="10" guides="1" tooltips="1" connect="1" arrows="1" fold="1" page="1" pageScale="1" pageWidth="850" pageHeight="1100" math="0" shadow="0">
      <root>
        <mxCell id="0" />
        <mxCell id="1" parent="0" />
        <mxCell id="mMf6VHpU0IKwdCsaFcJv-47" value="" style="group" parent="1" vertex="1" connectable="0">
          <mxGeometry x="-520" y="20" width="250" height="250" as="geometry" />
        </mxCell>
        <mxCell id="N9wiiqgjRLg7cLJURE3G-51" value="Output_Register" style="rounded=0;whiteSpace=wrap;html=1;fontSize=24;verticalAlign=top;" parent="mMf6VHpU0IKwdCsaFcJv-47" vertex="1">
          <mxGeometry width="249.99431831094773" height="250" as="geometry" />
        </mxCell>
        <mxCell id="N9wiiqgjRLg7cLJURE3G-54" style="edgeStyle=orthogonalEdgeStyle;rounded=0;orthogonalLoop=1;jettySize=auto;html=1;exitX=0.5;exitY=1;exitDx=0;exitDy=0;" parent="mMf6VHpU0IKwdCsaFcJv-47" source="N9wiiqgjRLg7cLJURE3G-51" target="N9wiiqgjRLg7cLJURE3G-51" edge="1">
          <mxGeometry relative="1" as="geometry" />
        </mxCell>
        <mxCell id="mMf6VHpU0IKwdCsaFcJv-40" value="clk_i" style="edgeLabel;html=1;align=left;verticalAlign=middle;resizable=0;points=[];" parent="mMf6VHpU0IKwdCsaFcJv-47" vertex="1" connectable="0">
          <mxGeometry x="0.005681689052494221" y="25" as="geometry" />
        </mxCell>
        <mxCell id="mMf6VHpU0IKwdCsaFcJv-41" value="reset_i" style="edgeLabel;html=1;align=left;verticalAlign=middle;resizable=0;points=[];" parent="mMf6VHpU0IKwdCsaFcJv-47" vertex="1" connectable="0">
          <mxGeometry x="0.005681689052494221" y="75" as="geometry" />
        </mxCell>
        <mxCell id="mMf6VHpU0IKwdCsaFcJv-42" value="cs_i" style="edgeLabel;html=1;align=left;verticalAlign=middle;resizable=0;points=[];" parent="mMf6VHpU0IKwdCsaFcJv-47" vertex="1" connectable="0">
          <mxGeometry x="0.005681689052494221" y="125" as="geometry" />
        </mxCell>
        <mxCell id="mMf6VHpU0IKwdCsaFcJv-43" value="load_i" style="edgeLabel;html=1;align=left;verticalAlign=middle;resizable=0;points=[];" parent="mMf6VHpU0IKwdCsaFcJv-47" vertex="1" connectable="0">
          <mxGeometry x="0.005681689052494221" y="175" as="geometry" />
        </mxCell>
        <mxCell id="mMf6VHpU0IKwdCsaFcJv-44" value="&lt;div&gt;data_i(8)&lt;/div&gt;" style="edgeLabel;html=1;align=left;verticalAlign=middle;resizable=0;points=[];" parent="mMf6VHpU0IKwdCsaFcJv-47" vertex="1" connectable="0">
          <mxGeometry x="0.005681689052494221" y="225" as="geometry" />
        </mxCell>
        <mxCell id="mMf6VHpU0IKwdCsaFcJv-45" value="&lt;div&gt;data_o(8)&lt;/div&gt;" style="edgeLabel;html=1;align=right;verticalAlign=middle;resizable=0;points=[];" parent="mMf6VHpU0IKwdCsaFcJv-47" vertex="1" connectable="0">
          <mxGeometry x="250" y="125.00000000000006" as="geometry" />
        </mxCell>
        <mxCell id="mMf6VHpU0IKwdCsaFcJv-48" value="" style="group" parent="1" vertex="1" connectable="0">
          <mxGeometry x="-249.99827586206902" y="20" width="250" height="250" as="geometry" />
        </mxCell>
        <mxCell id="N9wiiqgjRLg7cLJURE3G-33" value="RAM" style="rounded=0;whiteSpace=wrap;html=1;verticalAlign=top;fontSize=24;" parent="mMf6VHpU0IKwdCsaFcJv-48" vertex="1">
          <mxGeometry width="250" height="250" as="geometry" />
        </mxCell>
        <mxCell id="mMf6VHpU0IKwdCsaFcJv-30" value="clk_i" style="edgeLabel;html=1;align=left;verticalAlign=middle;resizable=0;points=[];" parent="mMf6VHpU0IKwdCsaFcJv-48" vertex="1" connectable="0">
          <mxGeometry x="0.007762450315681235" y="25" as="geometry" />
        </mxCell>
        <mxCell id="mMf6VHpU0IKwdCsaFcJv-31" value="cs_i" style="edgeLabel;html=1;align=left;verticalAlign=middle;resizable=0;points=[];" parent="mMf6VHpU0IKwdCsaFcJv-48" vertex="1" connectable="0">
          <mxGeometry x="0.007762450315681235" y="75" as="geometry" />
        </mxCell>
        <mxCell id="mMf6VHpU0IKwdCsaFcJv-32" value="wr_i" style="edgeLabel;html=1;align=left;verticalAlign=middle;resizable=0;points=[];" parent="mMf6VHpU0IKwdCsaFcJv-48" vertex="1" connectable="0">
          <mxGeometry x="0.007762450315681235" y="125" as="geometry" />
        </mxCell>
        <mxCell id="mMf6VHpU0IKwdCsaFcJv-33" value="addr_i(8)" style="edgeLabel;html=1;align=left;verticalAlign=middle;resizable=0;points=[];" parent="mMf6VHpU0IKwdCsaFcJv-48" vertex="1" connectable="0">
          <mxGeometry x="0.007762450315681235" y="175" as="geometry" />
        </mxCell>
        <mxCell id="mMf6VHpU0IKwdCsaFcJv-34" value="&lt;div&gt;data_i(8)&lt;/div&gt;" style="edgeLabel;html=1;align=left;verticalAlign=middle;resizable=0;points=[];" parent="mMf6VHpU0IKwdCsaFcJv-48" vertex="1" connectable="0">
          <mxGeometry x="0.007762450315681235" y="225" as="geometry" />
        </mxCell>
        <mxCell id="mMf6VHpU0IKwdCsaFcJv-35" value="&lt;div&gt;data_o(8)&lt;/div&gt;" style="edgeLabel;html=1;align=right;verticalAlign=middle;resizable=0;points=[];" parent="mMf6VHpU0IKwdCsaFcJv-48" vertex="1" connectable="0">
          <mxGeometry x="249.99969604863207" y="125.00000000000011" as="geometry" />
        </mxCell>
        <mxCell id="mMf6VHpU0IKwdCsaFcJv-49" value="" style="group" parent="1" vertex="1" connectable="0">
          <mxGeometry x="19.99571428571423" y="20" width="250.00000000000003" height="250" as="geometry" />
        </mxCell>
        <mxCell id="N9wiiqgjRLg7cLJURE3G-68" value="Address_Decode" style="rounded=0;whiteSpace=wrap;html=1;verticalAlign=top;fontSize=24;" parent="mMf6VHpU0IKwdCsaFcJv-49" vertex="1">
          <mxGeometry x="0.004658298292639529" width="249.99534170170736" height="250.00000000000003" as="geometry" />
        </mxCell>
        <mxCell id="N9wiiqgjRLg7cLJURE3G-71" style="edgeStyle=orthogonalEdgeStyle;rounded=0;orthogonalLoop=1;jettySize=auto;html=1;exitX=0.5;exitY=1;exitDx=0;exitDy=0;" parent="mMf6VHpU0IKwdCsaFcJv-49" source="N9wiiqgjRLg7cLJURE3G-68" target="N9wiiqgjRLg7cLJURE3G-68" edge="1">
          <mxGeometry relative="1" as="geometry" />
        </mxCell>
        <mxCell id="mMf6VHpU0IKwdCsaFcJv-4" value="cs_port_b_o" style="edgeLabel;html=1;align=right;verticalAlign=middle;resizable=0;points=[];" parent="mMf6VHpU0IKwdCsaFcJv-49" vertex="1" connectable="0">
          <mxGeometry x="249.99534170170753" y="124.58333333333326" as="geometry" />
        </mxCell>
        <mxCell id="mMf6VHpU0IKwdCsaFcJv-5" value="cs_port_a_o" style="edgeLabel;html=1;align=right;verticalAlign=middle;resizable=0;points=[];" parent="mMf6VHpU0IKwdCsaFcJv-49" vertex="1" connectable="0">
          <mxGeometry x="249.99534170170753" y="41.66666666666667" as="geometry" />
        </mxCell>
        <mxCell id="mMf6VHpU0IKwdCsaFcJv-6" value="&lt;div&gt;cs_ram_o&lt;/div&gt;" style="edgeLabel;html=1;align=right;verticalAlign=middle;resizable=0;points=[];" parent="mMf6VHpU0IKwdCsaFcJv-49" vertex="1" connectable="0">
          <mxGeometry x="249.99534170170753" y="208.33333333333334" as="geometry" />
        </mxCell>
        <mxCell id="mMf6VHpU0IKwdCsaFcJv-7" value="addr_i(8)" style="edgeLabel;html=1;align=left;verticalAlign=middle;resizable=0;points=[];" parent="mMf6VHpU0IKwdCsaFcJv-49" vertex="1" connectable="0">
          <mxGeometry y="125" as="geometry" />
        </mxCell>
        <mxCell id="mMf6VHpU0IKwdCsaFcJv-50" value="" style="group" parent="1" vertex="1" connectable="0">
          <mxGeometry x="-520.003" y="290" width="250" height="125" as="geometry" />
        </mxCell>
        <mxCell id="N9wiiqgjRLg7cLJURE3G-1" value="ROM" style="rounded=0;whiteSpace=wrap;html=1;verticalAlign=top;fontSize=24;" parent="mMf6VHpU0IKwdCsaFcJv-50" vertex="1">
          <mxGeometry x="0.0063022590655918975" width="249.98960959508122" height="125" as="geometry" />
        </mxCell>
        <mxCell id="N9wiiqgjRLg7cLJURE3G-3" style="edgeStyle=orthogonalEdgeStyle;rounded=0;orthogonalLoop=1;jettySize=auto;html=1;exitX=0.5;exitY=1;exitDx=0;exitDy=0;" parent="mMf6VHpU0IKwdCsaFcJv-50" source="N9wiiqgjRLg7cLJURE3G-1" target="N9wiiqgjRLg7cLJURE3G-1" edge="1">
          <mxGeometry relative="1" as="geometry" />
        </mxCell>
        <mxCell id="mMf6VHpU0IKwdCsaFcJv-17" value="ir_o(14)" style="edgeLabel;html=1;align=right;verticalAlign=middle;resizable=0;points=[];" parent="mMf6VHpU0IKwdCsaFcJv-50" vertex="1" connectable="0">
          <mxGeometry x="250" y="62.49456016621059" as="geometry" />
        </mxCell>
        <mxCell id="mMf6VHpU0IKwdCsaFcJv-18" value="pc_i(8)" style="edgeLabel;html=1;align=left;verticalAlign=middle;resizable=0;points=[];" parent="mMf6VHpU0IKwdCsaFcJv-50" vertex="1" connectable="0">
          <mxGeometry y="62.5" as="geometry" />
        </mxCell>
        <mxCell id="mMf6VHpU0IKwdCsaFcJv-51" value="" style="group" parent="1" vertex="1" connectable="0">
          <mxGeometry x="-250.00365853658548" y="290" width="250" height="250" as="geometry" />
        </mxCell>
        <mxCell id="N9wiiqgjRLg7cLJURE3G-13" value="Data_Multiplexer" style="rounded=0;whiteSpace=wrap;html=1;movable=1;resizable=1;rotatable=1;deletable=1;editable=1;locked=0;connectable=1;verticalAlign=top;fontSize=24;" parent="mMf6VHpU0IKwdCsaFcJv-51" vertex="1">
          <mxGeometry x="0.003658483046706351" width="249.9963415169533" height="250.00000000000003" as="geometry" />
        </mxCell>
        <mxCell id="N9wiiqgjRLg7cLJURE3G-16" style="edgeStyle=orthogonalEdgeStyle;rounded=0;orthogonalLoop=1;jettySize=auto;html=1;exitX=0.5;exitY=1;exitDx=0;exitDy=0;movable=1;resizable=1;rotatable=1;deletable=1;editable=1;locked=0;connectable=1;verticalAlign=top;" parent="mMf6VHpU0IKwdCsaFcJv-51" source="N9wiiqgjRLg7cLJURE3G-13" target="N9wiiqgjRLg7cLJURE3G-13" edge="1">
          <mxGeometry relative="1" as="geometry" />
        </mxCell>
        <mxCell id="mMf6VHpU0IKwdCsaFcJv-36" value="" style="edgeStyle=orthogonalEdgeStyle;rounded=0;orthogonalLoop=1;jettySize=auto;html=1;" parent="mMf6VHpU0IKwdCsaFcJv-51" source="mMf6VHpU0IKwdCsaFcJv-9" target="N9wiiqgjRLg7cLJURE3G-13" edge="1">
          <mxGeometry relative="1" as="geometry" />
        </mxCell>
        <mxCell id="mMf6VHpU0IKwdCsaFcJv-9" value="&lt;div&gt;data_o(8)&lt;/div&gt;" style="edgeLabel;html=1;align=right;verticalAlign=middle;resizable=1;points=[];movable=1;rotatable=1;deletable=1;editable=1;locked=0;connectable=1;" parent="mMf6VHpU0IKwdCsaFcJv-51" vertex="1" connectable="0">
          <mxGeometry x="249.99634151695375" y="125" as="geometry" />
        </mxCell>
        <mxCell id="mMf6VHpU0IKwdCsaFcJv-10" value="&lt;div&gt;RAM_data_i(8)&lt;/div&gt;" style="edgeLabel;html=1;align=left;verticalAlign=middle;resizable=1;points=[];movable=1;rotatable=1;deletable=1;editable=1;locked=0;connectable=1;" parent="mMf6VHpU0IKwdCsaFcJv-51" vertex="1" connectable="0">
          <mxGeometry x="0.009999999999990905" y="50.00333333333333" as="geometry" />
        </mxCell>
        <mxCell id="mMf6VHpU0IKwdCsaFcJv-11" value="port_a_data_i(8)" style="edgeLabel;html=1;align=left;verticalAlign=middle;resizable=1;points=[];movable=1;rotatable=1;deletable=1;editable=1;locked=0;connectable=1;" parent="mMf6VHpU0IKwdCsaFcJv-51" vertex="1" connectable="0">
          <mxGeometry x="0.009999999999990905" y="86" as="geometry" />
        </mxCell>
        <mxCell id="mMf6VHpU0IKwdCsaFcJv-12" value="port_b_data_i(8)" style="edgeLabel;html=1;align=left;verticalAlign=middle;resizable=1;points=[];movable=1;rotatable=1;deletable=1;editable=1;locked=0;connectable=1;" parent="mMf6VHpU0IKwdCsaFcJv-51" vertex="1" connectable="0">
          <mxGeometry x="0.009999999999990905" y="122" as="geometry" />
        </mxCell>
        <mxCell id="mMf6VHpU0IKwdCsaFcJv-13" value="cs_ram_i" style="edgeLabel;html=1;align=left;verticalAlign=middle;resizable=1;points=[];movable=1;rotatable=1;deletable=1;editable=1;locked=0;connectable=1;" parent="mMf6VHpU0IKwdCsaFcJv-51" vertex="1" connectable="0">
          <mxGeometry y="158" as="geometry" />
        </mxCell>
        <mxCell id="mMf6VHpU0IKwdCsaFcJv-14" value="cs_port_a_i" style="edgeLabel;html=1;align=left;verticalAlign=middle;resizable=1;points=[];movable=1;rotatable=1;deletable=1;editable=1;locked=0;connectable=1;" parent="mMf6VHpU0IKwdCsaFcJv-51" vertex="1" connectable="0">
          <mxGeometry y="193" as="geometry" />
        </mxCell>
        <mxCell id="mMf6VHpU0IKwdCsaFcJv-15" value="cs_port_b_i" style="edgeLabel;html=1;align=left;verticalAlign=middle;resizable=1;points=[];movable=1;rotatable=1;deletable=1;editable=1;locked=0;connectable=1;" parent="mMf6VHpU0IKwdCsaFcJv-51" vertex="1" connectable="0">
          <mxGeometry y="229.16666666666674" as="geometry" />
        </mxCell>
        <mxCell id="u6_HCMi7Y2Q1IlWqlrbd-282" value="" style="group" parent="1" vertex="1" connectable="0">
          <mxGeometry x="19.98948658824667" y="290" width="250.0022375496843" height="250" as="geometry" />
        </mxCell>
        <mxCell id="u6_HCMi7Y2Q1IlWqlrbd-272" value="NanoProcessor" style="rounded=0;whiteSpace=wrap;html=1;verticalAlign=top;fontSize=24;" parent="u6_HCMi7Y2Q1IlWqlrbd-282" vertex="1">
          <mxGeometry x="0.00223754968430967" width="250" height="250" as="geometry" />
        </mxCell>
        <mxCell id="u6_HCMi7Y2Q1IlWqlrbd-273" value="clk_i" style="edgeLabel;html=1;align=left;verticalAlign=middle;resizable=0;points=[];" parent="u6_HCMi7Y2Q1IlWqlrbd-282" vertex="1" connectable="0">
          <mxGeometry y="40" as="geometry" />
        </mxCell>
        <mxCell id="u6_HCMi7Y2Q1IlWqlrbd-274" value="reset_i" style="edgeLabel;html=1;align=left;verticalAlign=middle;resizable=0;points=[];" parent="u6_HCMi7Y2Q1IlWqlrbd-282" vertex="1" connectable="0">
          <mxGeometry x="0.009999999999990905" y="97" as="geometry" />
        </mxCell>
        <mxCell id="u6_HCMi7Y2Q1IlWqlrbd-275" value="data_i(8)" style="edgeLabel;html=1;align=left;verticalAlign=middle;resizable=0;points=[];" parent="u6_HCMi7Y2Q1IlWqlrbd-282" vertex="1" connectable="0">
          <mxGeometry x="0.009999999999990905" y="153" as="geometry" />
        </mxCell>
        <mxCell id="u6_HCMi7Y2Q1IlWqlrbd-276" value="IR_i(14)" style="edgeLabel;html=1;align=left;verticalAlign=middle;resizable=0;points=[];" parent="u6_HCMi7Y2Q1IlWqlrbd-282" vertex="1" connectable="0">
          <mxGeometry y="210" as="geometry" />
        </mxCell>
        <mxCell id="u6_HCMi7Y2Q1IlWqlrbd-278" value="&lt;div&gt;data_wr_o&lt;/div&gt;" style="edgeLabel;html=1;align=right;verticalAlign=middle;resizable=0;points=[];" parent="u6_HCMi7Y2Q1IlWqlrbd-282" vertex="1" connectable="0">
          <mxGeometry x="250.00193359831644" y="97" as="geometry" />
        </mxCell>
        <mxCell id="u6_HCMi7Y2Q1IlWqlrbd-279" value="PC_o(8)" style="edgeLabel;html=1;align=right;verticalAlign=middle;resizable=0;points=[];" parent="u6_HCMi7Y2Q1IlWqlrbd-282" vertex="1" connectable="0">
          <mxGeometry x="250.00193359831644" y="40.000000000000114" as="geometry" />
        </mxCell>
        <mxCell id="u6_HCMi7Y2Q1IlWqlrbd-280" value="&lt;div&gt;data_o(8)&lt;/div&gt;" style="edgeLabel;html=1;align=right;verticalAlign=middle;resizable=0;points=[];" parent="u6_HCMi7Y2Q1IlWqlrbd-282" vertex="1" connectable="0">
          <mxGeometry x="250.00193359831644" y="153" as="geometry" />
        </mxCell>
        <mxCell id="u6_HCMi7Y2Q1IlWqlrbd-281" value="&lt;div&gt;addr_o(8)&lt;/div&gt;" style="edgeLabel;html=1;align=right;verticalAlign=middle;resizable=0;points=[];" parent="u6_HCMi7Y2Q1IlWqlrbd-282" vertex="1" connectable="0">
          <mxGeometry x="250.00193359831644" y="210.0000000000001" as="geometry" />
        </mxCell>
        <mxCell id="u6_HCMi7Y2Q1IlWqlrbd-283" value="&lt;font style=&quot;font-size: 72px;&quot;&gt;NanoController&lt;/font&gt;" style="rounded=0;whiteSpace=wrap;html=1;verticalAlign=top;" parent="1" vertex="1">
          <mxGeometry x="-770" y="660" width="1930" height="1320" as="geometry" />
        </mxCell>
        <mxCell id="u6_HCMi7Y2Q1IlWqlrbd-285" value="&lt;font style=&quot;font-size: 24px;&quot;&gt;clk_i&lt;/font&gt;" style="text;html=1;align=left;verticalAlign=middle;resizable=0;points=[];autosize=1;strokeColor=none;fillColor=none;flipV=0;flipH=1;" parent="1" vertex="1">
          <mxGeometry x="-760" y="860" width="70" height="40" as="geometry" />
        </mxCell>
        <mxCell id="u6_HCMi7Y2Q1IlWqlrbd-286" value="&lt;font style=&quot;font-size: 24px;&quot;&gt;reset_i&lt;/font&gt;" style="text;html=1;align=left;verticalAlign=middle;resizable=0;points=[];autosize=1;strokeColor=none;fillColor=none;flipV=0;flipH=1;" parent="1" vertex="1">
          <mxGeometry x="-760" y="1177.5" width="90" height="40" as="geometry" />
        </mxCell>
        <mxCell id="u6_HCMi7Y2Q1IlWqlrbd-288" value="&lt;font style=&quot;font-size: 24px;&quot;&gt;port_a_i(8)&lt;/font&gt;" style="text;html=1;align=left;verticalAlign=middle;resizable=0;points=[];autosize=1;strokeColor=none;fillColor=none;flipV=0;flipH=1;" parent="1" vertex="1">
          <mxGeometry x="-760" y="1550" width="140" height="40" as="geometry" />
        </mxCell>
        <mxCell id="u6_HCMi7Y2Q1IlWqlrbd-289" value="&lt;font style=&quot;font-size: 24px;&quot;&gt;port_b_i(8)&lt;/font&gt;" style="text;html=1;align=left;verticalAlign=middle;resizable=0;points=[];autosize=1;strokeColor=none;fillColor=none;flipV=0;flipH=1;" parent="1" vertex="1">
          <mxGeometry x="-760" y="1870" width="140" height="40" as="geometry" />
        </mxCell>
        <mxCell id="u6_HCMi7Y2Q1IlWqlrbd-290" value="&lt;font style=&quot;font-size: 24px;&quot;&gt;port_a_o(8)&lt;/font&gt;" style="text;html=1;align=right;verticalAlign=middle;resizable=0;points=[];autosize=1;strokeColor=none;fillColor=none;" parent="1" vertex="1">
          <mxGeometry x="1020" y="965" width="150" height="40" as="geometry" />
        </mxCell>
        <mxCell id="u6_HCMi7Y2Q1IlWqlrbd-291" value="&lt;font style=&quot;font-size: 24px;&quot;&gt;port_b_o(8)&lt;/font&gt;" style="text;html=1;align=right;verticalAlign=middle;resizable=0;points=[];autosize=1;strokeColor=none;fillColor=none;" parent="1" vertex="1">
          <mxGeometry x="1020" y="1275" width="150" height="40" as="geometry" />
        </mxCell>
        <mxCell id="u6_HCMi7Y2Q1IlWqlrbd-292" value="" style="group" parent="1" vertex="1" connectable="0">
          <mxGeometry x="259.99948658824667" y="1250" width="280.00051341175333" height="250" as="geometry" />
        </mxCell>
        <mxCell id="u6_HCMi7Y2Q1IlWqlrbd-293" value="NanoProcessor" style="rounded=0;whiteSpace=wrap;html=1;verticalAlign=top;fontSize=24;" parent="u6_HCMi7Y2Q1IlWqlrbd-292" vertex="1">
          <mxGeometry x="0.00223754968430967" width="250" height="250" as="geometry" />
        </mxCell>
        <mxCell id="u6_HCMi7Y2Q1IlWqlrbd-294" value="clk_i" style="edgeLabel;html=1;align=left;verticalAlign=middle;resizable=0;points=[];" parent="u6_HCMi7Y2Q1IlWqlrbd-292" vertex="1" connectable="0">
          <mxGeometry y="40" as="geometry" />
        </mxCell>
        <mxCell id="u6_HCMi7Y2Q1IlWqlrbd-295" value="reset_i" style="edgeLabel;html=1;align=left;verticalAlign=middle;resizable=0;points=[];" parent="u6_HCMi7Y2Q1IlWqlrbd-292" vertex="1" connectable="0">
          <mxGeometry x="0.009999999999990905" y="83" as="geometry" />
        </mxCell>
        <mxCell id="u6_HCMi7Y2Q1IlWqlrbd-296" value="data_i(8)" style="edgeLabel;html=1;align=left;verticalAlign=middle;resizable=0;points=[];" parent="u6_HCMi7Y2Q1IlWqlrbd-292" vertex="1" connectable="0">
          <mxGeometry x="0.009999999999990905" y="168" as="geometry" />
        </mxCell>
        <mxCell id="u6_HCMi7Y2Q1IlWqlrbd-297" value="IR_i(14)" style="edgeLabel;html=1;align=left;verticalAlign=middle;resizable=0;points=[];" parent="u6_HCMi7Y2Q1IlWqlrbd-292" vertex="1" connectable="0">
          <mxGeometry y="210" as="geometry" />
        </mxCell>
        <mxCell id="u6_HCMi7Y2Q1IlWqlrbd-298" value="&lt;div&gt;data_wr_o&lt;/div&gt;" style="edgeLabel;html=1;align=right;verticalAlign=middle;resizable=0;points=[];" parent="u6_HCMi7Y2Q1IlWqlrbd-292" vertex="1" connectable="0">
          <mxGeometry x="250.00193359831644" y="135" as="geometry" />
        </mxCell>
        <mxCell id="u6_HCMi7Y2Q1IlWqlrbd-299" value="PC_o(8)" style="edgeLabel;html=1;align=right;verticalAlign=middle;resizable=0;points=[];" parent="u6_HCMi7Y2Q1IlWqlrbd-292" vertex="1" connectable="0">
          <mxGeometry x="250.00193359831644" y="88" as="geometry" />
        </mxCell>
        <mxCell id="u6_HCMi7Y2Q1IlWqlrbd-300" value="&lt;div&gt;data_o(8)&lt;/div&gt;" style="edgeLabel;html=1;align=right;verticalAlign=middle;resizable=0;points=[];" parent="u6_HCMi7Y2Q1IlWqlrbd-292" vertex="1" connectable="0">
          <mxGeometry x="250.00193359831644" y="183" as="geometry" />
        </mxCell>
        <mxCell id="u6_HCMi7Y2Q1IlWqlrbd-301" value="&lt;div&gt;addr_o(8)&lt;/div&gt;" style="edgeLabel;html=1;align=right;verticalAlign=middle;resizable=0;points=[];" parent="u6_HCMi7Y2Q1IlWqlrbd-292" vertex="1" connectable="0">
          <mxGeometry x="250.00193359831644" y="230.0000000000001" as="geometry" />
        </mxCell>
        <mxCell id="9dOAVIo0_q9MPd1h_VvT-8" value="restore_i (8)" style="edgeLabel;html=1;align=left;verticalAlign=middle;resizable=0;points=[];" vertex="1" connectable="0" parent="u6_HCMi7Y2Q1IlWqlrbd-292">
          <mxGeometry y="125" as="geometry" />
        </mxCell>
        <mxCell id="9dOAVIo0_q9MPd1h_VvT-9" value="PushPop(8)" style="edgeLabel;html=1;align=right;verticalAlign=middle;resizable=0;points=[];" vertex="1" connectable="0" parent="u6_HCMi7Y2Q1IlWqlrbd-292">
          <mxGeometry x="250.00193359831644" y="40" as="geometry" />
        </mxCell>
        <mxCell id="u6_HCMi7Y2Q1IlWqlrbd-302" value="" style="group" parent="1" vertex="1" connectable="0">
          <mxGeometry x="745.001724137931" y="1510" width="250" height="250" as="geometry" />
        </mxCell>
        <mxCell id="u6_HCMi7Y2Q1IlWqlrbd-303" value="RAM" style="rounded=0;whiteSpace=wrap;html=1;verticalAlign=top;fontSize=24;" parent="u6_HCMi7Y2Q1IlWqlrbd-302" vertex="1">
          <mxGeometry width="250" height="250" as="geometry" />
        </mxCell>
        <mxCell id="u6_HCMi7Y2Q1IlWqlrbd-304" value="clk_i" style="edgeLabel;html=1;align=left;verticalAlign=middle;resizable=0;points=[];" parent="u6_HCMi7Y2Q1IlWqlrbd-302" vertex="1" connectable="0">
          <mxGeometry x="0.007762450315681235" y="25" as="geometry" />
        </mxCell>
        <mxCell id="u6_HCMi7Y2Q1IlWqlrbd-305" value="cs_i" style="edgeLabel;html=1;align=left;verticalAlign=middle;resizable=0;points=[];" parent="u6_HCMi7Y2Q1IlWqlrbd-302" vertex="1" connectable="0">
          <mxGeometry x="0.007762450315681235" y="75" as="geometry" />
        </mxCell>
        <mxCell id="u6_HCMi7Y2Q1IlWqlrbd-306" value="wr_i" style="edgeLabel;html=1;align=left;verticalAlign=middle;resizable=0;points=[];" parent="u6_HCMi7Y2Q1IlWqlrbd-302" vertex="1" connectable="0">
          <mxGeometry x="0.007762450315681235" y="125" as="geometry" />
        </mxCell>
        <mxCell id="u6_HCMi7Y2Q1IlWqlrbd-307" value="addr_i(8)" style="edgeLabel;html=1;align=left;verticalAlign=middle;resizable=0;points=[];" parent="u6_HCMi7Y2Q1IlWqlrbd-302" vertex="1" connectable="0">
          <mxGeometry x="0.007762450315681235" y="175" as="geometry" />
        </mxCell>
        <mxCell id="u6_HCMi7Y2Q1IlWqlrbd-308" value="&lt;div&gt;data_i(8)&lt;/div&gt;" style="edgeLabel;html=1;align=left;verticalAlign=middle;resizable=0;points=[];" parent="u6_HCMi7Y2Q1IlWqlrbd-302" vertex="1" connectable="0">
          <mxGeometry x="0.007762450315681235" y="225" as="geometry" />
        </mxCell>
        <mxCell id="u6_HCMi7Y2Q1IlWqlrbd-309" value="&lt;div&gt;data_o(8)&lt;/div&gt;" style="edgeLabel;html=1;align=right;verticalAlign=middle;resizable=0;points=[];" parent="u6_HCMi7Y2Q1IlWqlrbd-302" vertex="1" connectable="0">
          <mxGeometry x="249.99969604863207" y="125.00000000000011" as="geometry" />
        </mxCell>
        <mxCell id="u6_HCMi7Y2Q1IlWqlrbd-319" value="" style="group" parent="1" vertex="1" connectable="0">
          <mxGeometry x="219.99699999999996" y="1000" width="250" height="125" as="geometry" />
        </mxCell>
        <mxCell id="u6_HCMi7Y2Q1IlWqlrbd-320" value="ROM" style="rounded=0;whiteSpace=wrap;html=1;verticalAlign=top;fontSize=24;" parent="u6_HCMi7Y2Q1IlWqlrbd-319" vertex="1">
          <mxGeometry x="0.0063022590655918975" width="249.98960959508122" height="125" as="geometry" />
        </mxCell>
        <mxCell id="u6_HCMi7Y2Q1IlWqlrbd-321" style="edgeStyle=orthogonalEdgeStyle;rounded=0;orthogonalLoop=1;jettySize=auto;html=1;exitX=0.5;exitY=1;exitDx=0;exitDy=0;" parent="u6_HCMi7Y2Q1IlWqlrbd-319" source="u6_HCMi7Y2Q1IlWqlrbd-320" target="u6_HCMi7Y2Q1IlWqlrbd-320" edge="1">
          <mxGeometry relative="1" as="geometry" />
        </mxCell>
        <mxCell id="u6_HCMi7Y2Q1IlWqlrbd-322" value="ir_o(14)" style="edgeLabel;html=1;align=right;verticalAlign=middle;resizable=0;points=[];" parent="u6_HCMi7Y2Q1IlWqlrbd-319" vertex="1" connectable="0">
          <mxGeometry x="250" y="62.49456016621059" as="geometry" />
        </mxCell>
        <mxCell id="u6_HCMi7Y2Q1IlWqlrbd-323" value="pc_i(8)" style="edgeLabel;html=1;align=left;verticalAlign=middle;resizable=0;points=[];" parent="u6_HCMi7Y2Q1IlWqlrbd-319" vertex="1" connectable="0">
          <mxGeometry y="62.5" as="geometry" />
        </mxCell>
        <mxCell id="u6_HCMi7Y2Q1IlWqlrbd-324" value="" style="group" parent="1" vertex="1" connectable="0">
          <mxGeometry x="-440.00428571428574" y="937.5" width="250.00000000000003" height="250" as="geometry" />
        </mxCell>
        <mxCell id="u6_HCMi7Y2Q1IlWqlrbd-325" value="Address_Decode" style="rounded=0;whiteSpace=wrap;html=1;verticalAlign=top;fontSize=24;" parent="u6_HCMi7Y2Q1IlWqlrbd-324" vertex="1">
          <mxGeometry x="0.004658298292639529" width="249.99534170170736" height="250.00000000000003" as="geometry" />
        </mxCell>
        <mxCell id="u6_HCMi7Y2Q1IlWqlrbd-326" style="edgeStyle=orthogonalEdgeStyle;rounded=0;orthogonalLoop=1;jettySize=auto;html=1;exitX=0.5;exitY=1;exitDx=0;exitDy=0;" parent="u6_HCMi7Y2Q1IlWqlrbd-324" source="u6_HCMi7Y2Q1IlWqlrbd-325" target="u6_HCMi7Y2Q1IlWqlrbd-325" edge="1">
          <mxGeometry relative="1" as="geometry" />
        </mxCell>
        <mxCell id="u6_HCMi7Y2Q1IlWqlrbd-327" value="cs_port_b_o" style="edgeLabel;html=1;align=right;verticalAlign=middle;resizable=0;points=[];" parent="u6_HCMi7Y2Q1IlWqlrbd-324" vertex="1" connectable="0">
          <mxGeometry x="249.99534170170753" y="124.58333333333326" as="geometry" />
        </mxCell>
        <mxCell id="u6_HCMi7Y2Q1IlWqlrbd-328" value="cs_port_a_o" style="edgeLabel;html=1;align=right;verticalAlign=middle;resizable=0;points=[];" parent="u6_HCMi7Y2Q1IlWqlrbd-324" vertex="1" connectable="0">
          <mxGeometry x="249.99534170170753" y="41.66666666666667" as="geometry" />
        </mxCell>
        <mxCell id="u6_HCMi7Y2Q1IlWqlrbd-329" value="&lt;div&gt;cs_ram_o&lt;/div&gt;" style="edgeLabel;html=1;align=right;verticalAlign=middle;resizable=0;points=[];" parent="u6_HCMi7Y2Q1IlWqlrbd-324" vertex="1" connectable="0">
          <mxGeometry x="249.99534170170753" y="208.33333333333334" as="geometry" />
        </mxCell>
        <mxCell id="u6_HCMi7Y2Q1IlWqlrbd-330" value="addr_i(8)" style="edgeLabel;html=1;align=left;verticalAlign=middle;resizable=0;points=[];" parent="u6_HCMi7Y2Q1IlWqlrbd-324" vertex="1" connectable="0">
          <mxGeometry y="125" as="geometry" />
        </mxCell>
        <mxCell id="u6_HCMi7Y2Q1IlWqlrbd-331" value="" style="group" parent="1" vertex="1" connectable="0">
          <mxGeometry x="-60.003658536585476" y="1570" width="250" height="250" as="geometry" />
        </mxCell>
        <mxCell id="u6_HCMi7Y2Q1IlWqlrbd-332" value="Data_Multiplexer" style="rounded=0;whiteSpace=wrap;html=1;movable=1;resizable=1;rotatable=1;deletable=1;editable=1;locked=0;connectable=1;verticalAlign=top;fontSize=24;" parent="u6_HCMi7Y2Q1IlWqlrbd-331" vertex="1">
          <mxGeometry x="0.003658483046706351" width="249.9963415169533" height="250.00000000000003" as="geometry" />
        </mxCell>
        <mxCell id="u6_HCMi7Y2Q1IlWqlrbd-333" style="edgeStyle=orthogonalEdgeStyle;rounded=0;orthogonalLoop=1;jettySize=auto;html=1;exitX=0.5;exitY=1;exitDx=0;exitDy=0;movable=1;resizable=1;rotatable=1;deletable=1;editable=1;locked=0;connectable=1;verticalAlign=top;" parent="u6_HCMi7Y2Q1IlWqlrbd-331" source="u6_HCMi7Y2Q1IlWqlrbd-332" target="u6_HCMi7Y2Q1IlWqlrbd-332" edge="1">
          <mxGeometry relative="1" as="geometry" />
        </mxCell>
        <mxCell id="u6_HCMi7Y2Q1IlWqlrbd-334" value="" style="edgeStyle=orthogonalEdgeStyle;rounded=0;orthogonalLoop=1;jettySize=auto;html=1;" parent="u6_HCMi7Y2Q1IlWqlrbd-331" source="u6_HCMi7Y2Q1IlWqlrbd-335" target="u6_HCMi7Y2Q1IlWqlrbd-332" edge="1">
          <mxGeometry relative="1" as="geometry" />
        </mxCell>
        <mxCell id="u6_HCMi7Y2Q1IlWqlrbd-335" value="&lt;div&gt;data_o(8)&lt;/div&gt;" style="edgeLabel;html=1;align=right;verticalAlign=middle;resizable=1;points=[];movable=1;rotatable=1;deletable=1;editable=1;locked=0;connectable=1;" parent="u6_HCMi7Y2Q1IlWqlrbd-331" vertex="1" connectable="0">
          <mxGeometry x="249.99634151695375" y="125" as="geometry" />
        </mxCell>
        <mxCell id="u6_HCMi7Y2Q1IlWqlrbd-336" value="&lt;div&gt;RAM_data_i(8)&lt;/div&gt;" style="edgeLabel;html=1;align=left;verticalAlign=middle;resizable=1;points=[];movable=1;rotatable=1;deletable=1;editable=1;locked=0;connectable=1;" parent="u6_HCMi7Y2Q1IlWqlrbd-331" vertex="1" connectable="0">
          <mxGeometry x="0.009999999999990905" y="50.00333333333333" as="geometry" />
        </mxCell>
        <mxCell id="u6_HCMi7Y2Q1IlWqlrbd-337" value="port_a_data_i(8)" style="edgeLabel;html=1;align=left;verticalAlign=middle;resizable=1;points=[];movable=1;rotatable=1;deletable=1;editable=1;locked=0;connectable=1;" parent="u6_HCMi7Y2Q1IlWqlrbd-331" vertex="1" connectable="0">
          <mxGeometry x="0.009999999999990905" y="86" as="geometry" />
        </mxCell>
        <mxCell id="u6_HCMi7Y2Q1IlWqlrbd-338" value="port_b_data_i(8)" style="edgeLabel;html=1;align=left;verticalAlign=middle;resizable=1;points=[];movable=1;rotatable=1;deletable=1;editable=1;locked=0;connectable=1;" parent="u6_HCMi7Y2Q1IlWqlrbd-331" vertex="1" connectable="0">
          <mxGeometry x="0.009999999999990905" y="122" as="geometry" />
        </mxCell>
        <mxCell id="u6_HCMi7Y2Q1IlWqlrbd-339" value="cs_ram_i" style="edgeLabel;html=1;align=left;verticalAlign=middle;resizable=1;points=[];movable=1;rotatable=1;deletable=1;editable=1;locked=0;connectable=1;" parent="u6_HCMi7Y2Q1IlWqlrbd-331" vertex="1" connectable="0">
          <mxGeometry y="158" as="geometry" />
        </mxCell>
        <mxCell id="u6_HCMi7Y2Q1IlWqlrbd-340" value="cs_port_a_i" style="edgeLabel;html=1;align=left;verticalAlign=middle;resizable=1;points=[];movable=1;rotatable=1;deletable=1;editable=1;locked=0;connectable=1;" parent="u6_HCMi7Y2Q1IlWqlrbd-331" vertex="1" connectable="0">
          <mxGeometry y="193" as="geometry" />
        </mxCell>
        <mxCell id="u6_HCMi7Y2Q1IlWqlrbd-341" value="cs_port_b_i" style="edgeLabel;html=1;align=left;verticalAlign=middle;resizable=1;points=[];movable=1;rotatable=1;deletable=1;editable=1;locked=0;connectable=1;" parent="u6_HCMi7Y2Q1IlWqlrbd-331" vertex="1" connectable="0">
          <mxGeometry y="229.16666666666674" as="geometry" />
        </mxCell>
        <mxCell id="u6_HCMi7Y2Q1IlWqlrbd-342" value="" style="endArrow=classic;html=1;rounded=0;exitX=0.004;exitY=0.543;exitDx=0;exitDy=0;exitPerimeter=0;entryX=0;entryY=0;entryDx=0;entryDy=0;entryPerimeter=0;fillColor=#60a917;strokeColor=#2D7600;" parent="1" source="u6_HCMi7Y2Q1IlWqlrbd-288" target="u6_HCMi7Y2Q1IlWqlrbd-337" edge="1">
          <mxGeometry width="50" height="50" relative="1" as="geometry">
            <mxPoint x="-510" y="1600" as="sourcePoint" />
            <mxPoint x="-460" y="1550" as="targetPoint" />
            <Array as="points">
              <mxPoint x="-360" y="1570" />
              <mxPoint x="-360" y="1656" />
            </Array>
          </mxGeometry>
        </mxCell>
        <mxCell id="u6_HCMi7Y2Q1IlWqlrbd-389" value="&lt;div data-darkreader-inline-bgcolor=&quot;&quot; data-darkreader-inline-color=&quot;&quot; style=&quot;color: rgb(204, 204, 204); background-color: rgb(31, 31, 31); font-family: &amp;quot;Droid Sans Mono&amp;quot;, &amp;quot;monospace&amp;quot;, monospace; font-weight: normal; font-size: 14px; line-height: 19px; white-space: pre; --darkreader-inline-color: #c8c3bc; --darkreader-inline-bgcolor: #17191a;&quot;&gt;&lt;div&gt;&lt;span data-darkreader-inline-color=&quot;&quot; style=&quot;color: rgb(204, 204, 204); --darkreader-inline-color: #c8c3bc;&quot;&gt;loc_port_a_i&lt;/span&gt;&lt;/div&gt;&lt;/div&gt;" style="edgeLabel;html=1;align=center;verticalAlign=middle;resizable=0;points=[];" parent="u6_HCMi7Y2Q1IlWqlrbd-342" vertex="1" connectable="0">
          <mxGeometry x="-0.0701" relative="1" as="geometry">
            <mxPoint as="offset" />
          </mxGeometry>
        </mxCell>
        <mxCell id="u6_HCMi7Y2Q1IlWqlrbd-343" value="" style="endArrow=classic;html=1;rounded=0;exitX=-0.008;exitY=0.55;exitDx=0;exitDy=0;exitPerimeter=0;entryX=0;entryY=0;entryDx=0;entryDy=0;entryPerimeter=0;fillColor=#1ba1e2;strokeColor=#006EAF;" parent="1" source="u6_HCMi7Y2Q1IlWqlrbd-289" target="u6_HCMi7Y2Q1IlWqlrbd-338" edge="1">
          <mxGeometry width="50" height="50" relative="1" as="geometry">
            <mxPoint x="-611" y="1582" as="sourcePoint" />
            <mxPoint x="-340" y="1621" as="targetPoint" />
            <Array as="points">
              <mxPoint x="-340" y="1890" />
              <mxPoint x="-340" y="1692" />
            </Array>
          </mxGeometry>
        </mxCell>
        <mxCell id="u6_HCMi7Y2Q1IlWqlrbd-390" value="&lt;div data-darkreader-inline-bgcolor=&quot;&quot; data-darkreader-inline-color=&quot;&quot; style=&quot;color: rgb(204, 204, 204); background-color: rgb(31, 31, 31); font-family: &amp;quot;Droid Sans Mono&amp;quot;, &amp;quot;monospace&amp;quot;, monospace; font-weight: normal; font-size: 14px; line-height: 19px; white-space: pre; --darkreader-inline-color: #c8c3bc; --darkreader-inline-bgcolor: #17191a;&quot;&gt;&lt;div&gt;&lt;span data-darkreader-inline-color=&quot;&quot; style=&quot;color: rgb(204, 204, 204); --darkreader-inline-color: #c8c3bc;&quot;&gt;loc_port_b_i&lt;/span&gt;&lt;/div&gt;&lt;/div&gt;" style="edgeLabel;html=1;align=center;verticalAlign=middle;resizable=0;points=[];" parent="u6_HCMi7Y2Q1IlWqlrbd-343" vertex="1" connectable="0">
          <mxGeometry x="-0.0184" relative="1" as="geometry">
            <mxPoint as="offset" />
          </mxGeometry>
        </mxCell>
        <mxCell id="u6_HCMi7Y2Q1IlWqlrbd-346" value="" style="endArrow=classic;html=1;rounded=0;exitX=0.996;exitY=0.537;exitDx=0;exitDy=0;exitPerimeter=0;entryX=-0.004;entryY=0.714;entryDx=0;entryDy=0;entryPerimeter=0;fillColor=#ffe6cc;strokeColor=#d79b00;" parent="1" source="u6_HCMi7Y2Q1IlWqlrbd-293" target="u6_HCMi7Y2Q1IlWqlrbd-311" edge="1">
          <mxGeometry width="50" height="50" relative="1" as="geometry">
            <mxPoint x="-260" y="886" as="sourcePoint" />
            <mxPoint x="-150" y="1295" as="targetPoint" />
            <Array as="points">
              <mxPoint x="630" y="1384" />
              <mxPoint x="630" y="1349" />
            </Array>
          </mxGeometry>
        </mxCell>
        <mxCell id="u6_HCMi7Y2Q1IlWqlrbd-392" value="&lt;div data-darkreader-inline-bgcolor=&quot;&quot; data-darkreader-inline-color=&quot;&quot; style=&quot;color: rgb(204, 204, 204); background-color: rgb(31, 31, 31); font-family: &amp;quot;Droid Sans Mono&amp;quot;, &amp;quot;monospace&amp;quot;, monospace; font-weight: normal; font-size: 14px; line-height: 19px; white-space: pre; --darkreader-inline-color: #c8c3bc; --darkreader-inline-bgcolor: #17191a;&quot;&gt;&lt;div&gt;&lt;span data-darkreader-inline-color=&quot;&quot; style=&quot;color: rgb(204, 204, 204); --darkreader-inline-color: #c8c3bc;&quot;&gt;loc_wr&lt;/span&gt;&lt;/div&gt;&lt;/div&gt;" style="edgeLabel;html=1;align=center;verticalAlign=middle;resizable=0;points=[];" parent="u6_HCMi7Y2Q1IlWqlrbd-346" vertex="1" connectable="0">
          <mxGeometry x="-0.4994" relative="1" as="geometry">
            <mxPoint as="offset" />
          </mxGeometry>
        </mxCell>
        <mxCell id="u6_HCMi7Y2Q1IlWqlrbd-356" value="" style="endArrow=classic;html=1;rounded=0;entryX=-0.003;entryY=0.713;entryDx=0;entryDy=0;entryPerimeter=0;fillColor=#ffe6cc;strokeColor=#d79b00;" parent="1" target="u6_HCMi7Y2Q1IlWqlrbd-348" edge="1">
          <mxGeometry width="50" height="50" relative="1" as="geometry">
            <mxPoint x="610" y="1350" as="sourcePoint" />
            <mxPoint x="-151" y="1418" as="targetPoint" />
            <Array as="points">
              <mxPoint x="610" y="1038" />
            </Array>
          </mxGeometry>
        </mxCell>
        <mxCell id="u6_HCMi7Y2Q1IlWqlrbd-357" value="" style="endArrow=classic;html=1;rounded=0;fillColor=#d80073;strokeColor=#A50040;exitX=1;exitY=0.5;exitDx=0;exitDy=0;" parent="1" source="u6_HCMi7Y2Q1IlWqlrbd-332" edge="1">
          <mxGeometry width="50" height="50" relative="1" as="geometry">
            <mxPoint x="210" y="1695" as="sourcePoint" />
            <mxPoint x="260" y="1420" as="targetPoint" />
            <Array as="points">
              <mxPoint x="210" y="1695" />
              <mxPoint x="210" y="1420" />
            </Array>
          </mxGeometry>
        </mxCell>
        <mxCell id="u6_HCMi7Y2Q1IlWqlrbd-395" value="&lt;div data-darkreader-inline-bgcolor=&quot;&quot; data-darkreader-inline-color=&quot;&quot; style=&quot;color: rgb(204, 204, 204); background-color: rgb(31, 31, 31); font-family: &amp;quot;Droid Sans Mono&amp;quot;, &amp;quot;monospace&amp;quot;, monospace; font-weight: normal; font-size: 14px; line-height: 19px; white-space: pre; --darkreader-inline-color: #c8c3bc; --darkreader-inline-bgcolor: #17191a;&quot;&gt;&lt;div&gt;&lt;span data-darkreader-inline-color=&quot;&quot; style=&quot;color: rgb(204, 204, 204); --darkreader-inline-color: #c8c3bc;&quot;&gt;loc_data_i&lt;/span&gt;&lt;/div&gt;&lt;/div&gt;" style="edgeLabel;html=1;align=center;verticalAlign=middle;resizable=0;points=[];" parent="u6_HCMi7Y2Q1IlWqlrbd-357" vertex="1" connectable="0">
          <mxGeometry x="0.2627" y="-1" relative="1" as="geometry">
            <mxPoint as="offset" />
          </mxGeometry>
        </mxCell>
        <mxCell id="u6_HCMi7Y2Q1IlWqlrbd-358" value="" style="endArrow=classic;html=1;rounded=0;exitX=0.991;exitY=0.356;exitDx=0;exitDy=0;exitPerimeter=0;entryX=0;entryY=0.5;entryDx=0;entryDy=0;fillColor=#d80073;strokeColor=#A50040;" parent="1" source="u6_HCMi7Y2Q1IlWqlrbd-293" target="u6_HCMi7Y2Q1IlWqlrbd-320" edge="1">
          <mxGeometry width="50" height="50" relative="1" as="geometry">
            <mxPoint x="500" y="1000" as="sourcePoint" />
            <mxPoint x="550" y="950" as="targetPoint" />
            <Array as="points">
              <mxPoint x="560" y="1339" />
              <mxPoint x="560" y="990" />
              <mxPoint x="200" y="990" />
              <mxPoint x="200" y="1063" />
            </Array>
          </mxGeometry>
        </mxCell>
        <mxCell id="u6_HCMi7Y2Q1IlWqlrbd-396" value="&lt;div data-darkreader-inline-bgcolor=&quot;&quot; data-darkreader-inline-color=&quot;&quot; style=&quot;color: rgb(204, 204, 204); background-color: rgb(31, 31, 31); font-family: &amp;quot;Droid Sans Mono&amp;quot;, &amp;quot;monospace&amp;quot;, monospace; font-weight: normal; font-size: 14px; line-height: 19px; white-space: pre; --darkreader-inline-color: #c8c3bc; --darkreader-inline-bgcolor: #17191a;&quot;&gt;&lt;div&gt;&lt;span data-darkreader-inline-color=&quot;&quot; style=&quot;color: rgb(204, 204, 204); --darkreader-inline-color: #c8c3bc;&quot;&gt;loc_PC&lt;/span&gt;&lt;/div&gt;&lt;/div&gt;" style="edgeLabel;html=1;align=center;verticalAlign=middle;resizable=0;points=[];" parent="u6_HCMi7Y2Q1IlWqlrbd-358" vertex="1" connectable="0">
          <mxGeometry x="-0.2086" relative="1" as="geometry">
            <mxPoint as="offset" />
          </mxGeometry>
        </mxCell>
        <mxCell id="u6_HCMi7Y2Q1IlWqlrbd-359" value="" style="endArrow=classic;html=1;rounded=0;entryX=0;entryY=0.843;entryDx=0;entryDy=0;entryPerimeter=0;exitX=1;exitY=0.5;exitDx=0;exitDy=0;fillColor=#60a917;strokeColor=#2D7600;" parent="1" source="u6_HCMi7Y2Q1IlWqlrbd-320" target="u6_HCMi7Y2Q1IlWqlrbd-293" edge="1">
          <mxGeometry width="50" height="50" relative="1" as="geometry">
            <mxPoint x="50" y="1350" as="sourcePoint" />
            <mxPoint x="100" y="1300" as="targetPoint" />
            <Array as="points">
              <mxPoint x="530" y="1063" />
              <mxPoint x="530" y="1200" />
              <mxPoint x="170" y="1200" />
              <mxPoint x="170" y="1460" />
            </Array>
          </mxGeometry>
        </mxCell>
        <mxCell id="u6_HCMi7Y2Q1IlWqlrbd-397" value="&lt;div data-darkreader-inline-bgcolor=&quot;&quot; data-darkreader-inline-color=&quot;&quot; style=&quot;color: rgb(204, 204, 204); background-color: rgb(31, 31, 31); font-family: &amp;quot;Droid Sans Mono&amp;quot;, &amp;quot;monospace&amp;quot;, monospace; font-weight: normal; font-size: 14px; line-height: 19px; white-space: pre; --darkreader-inline-color: #c8c3bc; --darkreader-inline-bgcolor: #17191a;&quot;&gt;&lt;div&gt;&lt;span data-darkreader-inline-color=&quot;&quot; style=&quot;color: rgb(204, 204, 204); --darkreader-inline-color: #c8c3bc;&quot;&gt;loc_ir&lt;/span&gt;&lt;/div&gt;&lt;/div&gt;" style="edgeLabel;html=1;align=center;verticalAlign=middle;resizable=0;points=[];" parent="u6_HCMi7Y2Q1IlWqlrbd-359" vertex="1" connectable="0">
          <mxGeometry x="-0.2007" y="-2" relative="1" as="geometry">
            <mxPoint as="offset" />
          </mxGeometry>
        </mxCell>
        <mxCell id="u6_HCMi7Y2Q1IlWqlrbd-360" value="" style="endArrow=classic;html=1;rounded=0;entryX=-0.002;entryY=0.903;entryDx=0;entryDy=0;entryPerimeter=0;fillColor=#f8cecc;strokeColor=#b85450;" parent="1" target="u6_HCMi7Y2Q1IlWqlrbd-303" edge="1">
          <mxGeometry width="50" height="50" relative="1" as="geometry">
            <mxPoint x="640" y="1400" as="sourcePoint" />
            <mxPoint x="490" y="1380" as="targetPoint" />
            <Array as="points">
              <mxPoint x="640" y="1736" />
            </Array>
          </mxGeometry>
        </mxCell>
        <mxCell id="u6_HCMi7Y2Q1IlWqlrbd-362" value="" style="endArrow=classic;html=1;rounded=0;exitX=0.996;exitY=0.724;exitDx=0;exitDy=0;exitPerimeter=0;entryX=-0.001;entryY=0.905;entryDx=0;entryDy=0;entryPerimeter=0;fillColor=#f8cecc;strokeColor=#b85450;" parent="1" source="u6_HCMi7Y2Q1IlWqlrbd-293" target="u6_HCMi7Y2Q1IlWqlrbd-311" edge="1">
          <mxGeometry width="50" height="50" relative="1" as="geometry">
            <mxPoint x="490" y="1216" as="sourcePoint" />
            <mxPoint x="640" y="1136" as="targetPoint" />
            <Array as="points">
              <mxPoint x="630" y="1430" />
              <mxPoint x="630" y="1396" />
            </Array>
          </mxGeometry>
        </mxCell>
        <mxCell id="u6_HCMi7Y2Q1IlWqlrbd-399" value="&lt;div data-darkreader-inline-bgcolor=&quot;&quot; data-darkreader-inline-color=&quot;&quot; style=&quot;color: rgb(204, 204, 204); background-color: rgb(31, 31, 31); font-family: &amp;quot;Droid Sans Mono&amp;quot;, &amp;quot;monospace&amp;quot;, monospace; font-weight: normal; font-size: 14px; line-height: 19px; white-space: pre; --darkreader-inline-color: #c8c3bc; --darkreader-inline-bgcolor: #17191a;&quot;&gt;&lt;div&gt;&lt;span data-darkreader-inline-color=&quot;&quot; style=&quot;color: rgb(204, 204, 204); --darkreader-inline-color: #c8c3bc;&quot;&gt;loc_data_o&lt;/span&gt;&lt;/div&gt;&lt;/div&gt;" style="edgeLabel;html=1;align=center;verticalAlign=middle;resizable=0;points=[];" parent="u6_HCMi7Y2Q1IlWqlrbd-362" vertex="1" connectable="0">
          <mxGeometry x="-0.5912" y="-2" relative="1" as="geometry">
            <mxPoint as="offset" />
          </mxGeometry>
        </mxCell>
        <mxCell id="u6_HCMi7Y2Q1IlWqlrbd-364" value="" style="endArrow=classic;html=1;rounded=0;entryX=-0.002;entryY=0.907;entryDx=0;entryDy=0;entryPerimeter=0;fillColor=#f8cecc;strokeColor=#b85450;" parent="1" target="u6_HCMi7Y2Q1IlWqlrbd-348" edge="1">
          <mxGeometry width="50" height="50" relative="1" as="geometry">
            <mxPoint x="640" y="1400" as="sourcePoint" />
            <mxPoint x="640" y="1426" as="targetPoint" />
            <Array as="points">
              <mxPoint x="640" y="1087" />
            </Array>
          </mxGeometry>
        </mxCell>
        <mxCell id="u6_HCMi7Y2Q1IlWqlrbd-365" value="" style="endArrow=classic;html=1;rounded=0;entryX=-0.001;entryY=0.202;entryDx=0;entryDy=0;entryPerimeter=0;exitX=1;exitY=0.5;exitDx=0;exitDy=0;fillColor=#76608a;strokeColor=#432D57;" parent="1" source="u6_HCMi7Y2Q1IlWqlrbd-303" target="u6_HCMi7Y2Q1IlWqlrbd-332" edge="1">
          <mxGeometry width="50" height="50" relative="1" as="geometry">
            <mxPoint x="920" y="1010" as="sourcePoint" />
            <mxPoint x="-240" y="1520" as="targetPoint" />
            <Array as="points">
              <mxPoint x="1040" y="1635" />
              <mxPoint x="1040" y="1490" />
              <mxPoint x="600" y="1490" />
              <mxPoint x="600" y="1530" />
              <mxPoint x="-90" y="1530" />
              <mxPoint x="-90" y="1620" />
            </Array>
          </mxGeometry>
        </mxCell>
        <mxCell id="u6_HCMi7Y2Q1IlWqlrbd-400" value="&lt;div data-darkreader-inline-bgcolor=&quot;&quot; data-darkreader-inline-color=&quot;&quot; style=&quot;color: rgb(204, 204, 204); background-color: rgb(31, 31, 31); font-family: &amp;quot;Droid Sans Mono&amp;quot;, &amp;quot;monospace&amp;quot;, monospace; font-weight: normal; font-size: 14px; line-height: 19px; white-space: pre; --darkreader-inline-color: #c8c3bc; --darkreader-inline-bgcolor: #17191a;&quot;&gt;&lt;div&gt;&lt;span data-darkreader-inline-color=&quot;&quot; style=&quot;color: rgb(204, 204, 204); --darkreader-inline-color: #c8c3bc;&quot;&gt;loc_data_ram&lt;/span&gt;&lt;/div&gt;&lt;/div&gt;" style="edgeLabel;html=1;align=center;verticalAlign=middle;resizable=0;points=[];" parent="u6_HCMi7Y2Q1IlWqlrbd-365" vertex="1" connectable="0">
          <mxGeometry x="-0.5379" relative="1" as="geometry">
            <mxPoint as="offset" />
          </mxGeometry>
        </mxCell>
        <mxCell id="u6_HCMi7Y2Q1IlWqlrbd-366" value="" style="endArrow=classic;html=1;rounded=0;exitX=1.001;exitY=0.916;exitDx=0;exitDy=0;exitPerimeter=0;entryX=0;entryY=0.702;entryDx=0;entryDy=0;entryPerimeter=0;fillColor=#d5e8d4;strokeColor=#82b366;" parent="1" source="u6_HCMi7Y2Q1IlWqlrbd-293" target="u6_HCMi7Y2Q1IlWqlrbd-303" edge="1">
          <mxGeometry width="50" height="50" relative="1" as="geometry">
            <mxPoint x="140" y="1510" as="sourcePoint" />
            <mxPoint x="190" y="1460" as="targetPoint" />
            <Array as="points">
              <mxPoint x="550" y="1479" />
              <mxPoint x="550" y="1686" />
            </Array>
          </mxGeometry>
        </mxCell>
        <mxCell id="u6_HCMi7Y2Q1IlWqlrbd-402" value="&lt;div data-darkreader-inline-bgcolor=&quot;&quot; data-darkreader-inline-color=&quot;&quot; style=&quot;color: rgb(204, 204, 204); background-color: rgb(31, 31, 31); font-family: &amp;quot;Droid Sans Mono&amp;quot;, &amp;quot;monospace&amp;quot;, monospace; font-weight: normal; font-size: 14px; line-height: 19px; white-space: pre; --darkreader-inline-color: #c8c3bc; --darkreader-inline-bgcolor: #17191a;&quot;&gt;&lt;div&gt;&lt;span data-darkreader-inline-color=&quot;&quot; style=&quot;color: rgb(204, 204, 204); --darkreader-inline-color: #c8c3bc;&quot;&gt;loc_addr_o&lt;/span&gt;&lt;/div&gt;&lt;/div&gt;" style="edgeLabel;html=1;align=center;verticalAlign=middle;resizable=0;points=[];" parent="u6_HCMi7Y2Q1IlWqlrbd-366" vertex="1" connectable="0">
          <mxGeometry x="-0.08" relative="1" as="geometry">
            <mxPoint as="offset" />
          </mxGeometry>
        </mxCell>
        <mxCell id="u6_HCMi7Y2Q1IlWqlrbd-367" value="" style="endArrow=classic;html=1;rounded=0;entryX=0;entryY=0.5;entryDx=0;entryDy=0;fillColor=#60a917;strokeColor=#2D7600;" parent="1" target="u6_HCMi7Y2Q1IlWqlrbd-325" edge="1">
          <mxGeometry width="50" height="50" relative="1" as="geometry">
            <mxPoint x="550" y="1520" as="sourcePoint" />
            <mxPoint x="230" y="1510" as="targetPoint" />
            <Array as="points">
              <mxPoint x="-520" y="1520" />
              <mxPoint x="-520" y="1063" />
            </Array>
          </mxGeometry>
        </mxCell>
        <mxCell id="u6_HCMi7Y2Q1IlWqlrbd-368" value="" style="endArrow=classic;html=1;rounded=0;entryX=-0.001;entryY=0.777;entryDx=0;entryDy=0;entryPerimeter=0;fillColor=#1ba1e2;strokeColor=#006EAF;" parent="1" target="u6_HCMi7Y2Q1IlWqlrbd-332" edge="1">
          <mxGeometry width="50" height="50" relative="1" as="geometry">
            <mxPoint x="-110" y="980" as="sourcePoint" />
            <mxPoint x="-450" y="1860" as="targetPoint" />
            <Array as="points">
              <mxPoint x="-110" y="1764" />
            </Array>
          </mxGeometry>
        </mxCell>
        <mxCell id="u6_HCMi7Y2Q1IlWqlrbd-369" value="" style="endArrow=classic;html=1;rounded=0;entryX=0;entryY=0.5;entryDx=0;entryDy=0;exitX=1.002;exitY=0.174;exitDx=0;exitDy=0;exitPerimeter=0;fillColor=#1ba1e2;strokeColor=#006EAF;" parent="1" source="u6_HCMi7Y2Q1IlWqlrbd-325" target="u6_HCMi7Y2Q1IlWqlrbd-348" edge="1">
          <mxGeometry width="50" height="50" relative="1" as="geometry">
            <mxPoint x="320" y="1300" as="sourcePoint" />
            <mxPoint x="370" y="1250" as="targetPoint" />
          </mxGeometry>
        </mxCell>
        <mxCell id="u6_HCMi7Y2Q1IlWqlrbd-403" value="&lt;div data-darkreader-inline-bgcolor=&quot;&quot; data-darkreader-inline-color=&quot;&quot; style=&quot;color: rgb(204, 204, 204); background-color: rgb(31, 31, 31); font-family: &amp;quot;Droid Sans Mono&amp;quot;, &amp;quot;monospace&amp;quot;, monospace; font-weight: normal; font-size: 14px; line-height: 19px; white-space: pre; --darkreader-inline-color: #c8c3bc; --darkreader-inline-bgcolor: #17191a;&quot;&gt;&lt;div&gt;&lt;span data-darkreader-inline-color=&quot;&quot; style=&quot;color: rgb(204, 204, 204); --darkreader-inline-color: #c8c3bc;&quot;&gt;loc_cs_a&lt;/span&gt;&lt;/div&gt;&lt;/div&gt;" style="edgeLabel;html=1;align=center;verticalAlign=middle;resizable=0;points=[];" parent="u6_HCMi7Y2Q1IlWqlrbd-369" vertex="1" connectable="0">
          <mxGeometry x="-0.6951" relative="1" as="geometry">
            <mxPoint as="offset" />
          </mxGeometry>
        </mxCell>
        <mxCell id="u6_HCMi7Y2Q1IlWqlrbd-370" value="" style="endArrow=classic;html=1;rounded=0;entryX=0;entryY=0.5;entryDx=0;entryDy=0;" parent="1" target="u6_HCMi7Y2Q1IlWqlrbd-311" edge="1">
          <mxGeometry width="50" height="50" relative="1" as="geometry">
            <mxPoint x="-130" y="1160" as="sourcePoint" />
            <mxPoint x="755" y="1325" as="targetPoint" />
            <Array as="points">
              <mxPoint x="680" y="1160" />
              <mxPoint x="680" y="1295" />
            </Array>
          </mxGeometry>
        </mxCell>
        <mxCell id="u6_HCMi7Y2Q1IlWqlrbd-404" value="&lt;div data-darkreader-inline-bgcolor=&quot;&quot; data-darkreader-inline-color=&quot;&quot; style=&quot;color: rgb(204, 204, 204); background-color: rgb(31, 31, 31); font-family: &amp;quot;Droid Sans Mono&amp;quot;, &amp;quot;monospace&amp;quot;, monospace; font-weight: normal; font-size: 14px; line-height: 19px; white-space: pre; --darkreader-inline-color: #c8c3bc; --darkreader-inline-bgcolor: #17191a;&quot;&gt;&lt;div&gt;&lt;span data-darkreader-inline-color=&quot;&quot; style=&quot;color: rgb(204, 204, 204); --darkreader-inline-color: #c8c3bc;&quot;&gt;loc_cs_b&lt;/span&gt;&lt;/div&gt;&lt;/div&gt;" style="edgeLabel;html=1;align=center;verticalAlign=middle;resizable=0;points=[];" parent="u6_HCMi7Y2Q1IlWqlrbd-370" vertex="1" connectable="0">
          <mxGeometry x="-0.8027" y="2" relative="1" as="geometry">
            <mxPoint as="offset" />
          </mxGeometry>
        </mxCell>
        <mxCell id="u6_HCMi7Y2Q1IlWqlrbd-371" value="" style="endArrow=classic;html=1;rounded=0;entryX=0;entryY=0.922;entryDx=0;entryDy=0;entryPerimeter=0;exitX=1;exitY=0.5;exitDx=0;exitDy=0;" parent="1" source="u6_HCMi7Y2Q1IlWqlrbd-325" target="u6_HCMi7Y2Q1IlWqlrbd-332" edge="1">
          <mxGeometry width="50" height="50" relative="1" as="geometry">
            <mxPoint x="-310" y="1085" as="sourcePoint" />
            <mxPoint x="-130" y="1694" as="targetPoint" />
            <Array as="points">
              <mxPoint x="-130" y="1063" />
              <mxPoint x="-130" y="1800" />
            </Array>
          </mxGeometry>
        </mxCell>
        <mxCell id="u6_HCMi7Y2Q1IlWqlrbd-372" value="" style="endArrow=classic;html=1;rounded=0;entryX=0;entryY=0;entryDx=0;entryDy=0;entryPerimeter=0;exitX=0.998;exitY=0.839;exitDx=0;exitDy=0;exitPerimeter=0;fillColor=#a0522d;strokeColor=#6D1F00;" parent="1" source="u6_HCMi7Y2Q1IlWqlrbd-325" target="u6_HCMi7Y2Q1IlWqlrbd-339" edge="1">
          <mxGeometry width="50" height="50" relative="1" as="geometry">
            <mxPoint x="-310" y="1170" as="sourcePoint" />
            <mxPoint x="-260" y="1710" as="targetPoint" />
            <Array as="points">
              <mxPoint x="-150" y="1147" />
              <mxPoint x="-150" y="1728" />
            </Array>
          </mxGeometry>
        </mxCell>
        <mxCell id="u6_HCMi7Y2Q1IlWqlrbd-373" value="" style="endArrow=classic;html=1;rounded=0;entryX=-0.001;entryY=0.306;entryDx=0;entryDy=0;entryPerimeter=0;fillColor=#a0522d;strokeColor=#6D1F00;" parent="1" target="u6_HCMi7Y2Q1IlWqlrbd-303" edge="1">
          <mxGeometry width="50" height="50" relative="1" as="geometry">
            <mxPoint x="-150" y="1550" as="sourcePoint" />
            <mxPoint x="650" y="1540" as="targetPoint" />
            <Array as="points">
              <mxPoint x="410" y="1550" />
              <mxPoint x="410" y="1587" />
            </Array>
          </mxGeometry>
        </mxCell>
        <mxCell id="u6_HCMi7Y2Q1IlWqlrbd-405" value="&lt;div data-darkreader-inline-bgcolor=&quot;&quot; data-darkreader-inline-color=&quot;&quot; style=&quot;color: rgb(204, 204, 204); background-color: rgb(31, 31, 31); font-family: &amp;quot;Droid Sans Mono&amp;quot;, &amp;quot;monospace&amp;quot;, monospace; font-weight: normal; font-size: 14px; line-height: 19px; white-space: pre; --darkreader-inline-color: #c8c3bc; --darkreader-inline-bgcolor: #17191a;&quot;&gt;&lt;div&gt;&lt;span data-darkreader-inline-color=&quot;&quot; style=&quot;color: rgb(204, 204, 204); --darkreader-inline-color: #c8c3bc;&quot;&gt;loc_cs_ram&lt;/span&gt;&lt;/div&gt;&lt;/div&gt;" style="edgeLabel;html=1;align=center;verticalAlign=middle;resizable=0;points=[];" parent="u6_HCMi7Y2Q1IlWqlrbd-373" vertex="1" connectable="0">
          <mxGeometry x="-0.5848" y="-3" relative="1" as="geometry">
            <mxPoint as="offset" />
          </mxGeometry>
        </mxCell>
        <mxCell id="u6_HCMi7Y2Q1IlWqlrbd-375" value="" style="group" parent="1" vertex="1" connectable="0">
          <mxGeometry x="745.0056816890524" y="1170" width="249.99863662189534" height="250" as="geometry" />
        </mxCell>
        <mxCell id="u6_HCMi7Y2Q1IlWqlrbd-311" value="Output_Register_b" style="rounded=0;whiteSpace=wrap;html=1;fontSize=24;verticalAlign=top;" parent="u6_HCMi7Y2Q1IlWqlrbd-375" vertex="1">
          <mxGeometry x="0.004318310947610371" width="249.99431831094773" height="250" as="geometry" />
        </mxCell>
        <mxCell id="u6_HCMi7Y2Q1IlWqlrbd-313" value="clk_i" style="edgeLabel;html=1;align=left;verticalAlign=middle;resizable=0;points=[];" parent="u6_HCMi7Y2Q1IlWqlrbd-375" vertex="1" connectable="0">
          <mxGeometry y="25" as="geometry" />
        </mxCell>
        <mxCell id="u6_HCMi7Y2Q1IlWqlrbd-314" value="reset_i" style="edgeLabel;html=1;align=left;verticalAlign=middle;resizable=0;points=[];" parent="u6_HCMi7Y2Q1IlWqlrbd-375" vertex="1" connectable="0">
          <mxGeometry y="75" as="geometry" />
        </mxCell>
        <mxCell id="u6_HCMi7Y2Q1IlWqlrbd-315" value="cs_i" style="edgeLabel;html=1;align=left;verticalAlign=middle;resizable=0;points=[];" parent="u6_HCMi7Y2Q1IlWqlrbd-375" vertex="1" connectable="0">
          <mxGeometry y="125" as="geometry" />
        </mxCell>
        <mxCell id="u6_HCMi7Y2Q1IlWqlrbd-316" value="load_i" style="edgeLabel;html=1;align=left;verticalAlign=middle;resizable=0;points=[];" parent="u6_HCMi7Y2Q1IlWqlrbd-375" vertex="1" connectable="0">
          <mxGeometry y="175" as="geometry" />
        </mxCell>
        <mxCell id="u6_HCMi7Y2Q1IlWqlrbd-317" value="&lt;div&gt;data_i(8)&lt;/div&gt;" style="edgeLabel;html=1;align=left;verticalAlign=middle;resizable=0;points=[];" parent="u6_HCMi7Y2Q1IlWqlrbd-375" vertex="1" connectable="0">
          <mxGeometry y="225" as="geometry" />
        </mxCell>
        <mxCell id="u6_HCMi7Y2Q1IlWqlrbd-318" value="&lt;div&gt;data_o(8)&lt;/div&gt;" style="edgeLabel;html=1;align=right;verticalAlign=middle;resizable=0;points=[];" parent="u6_HCMi7Y2Q1IlWqlrbd-375" vertex="1" connectable="0">
          <mxGeometry x="249.99431831094762" y="125" as="geometry" />
        </mxCell>
        <mxCell id="u6_HCMi7Y2Q1IlWqlrbd-312" style="edgeStyle=orthogonalEdgeStyle;rounded=0;orthogonalLoop=1;jettySize=auto;html=1;exitX=0.5;exitY=1;exitDx=0;exitDy=0;" parent="u6_HCMi7Y2Q1IlWqlrbd-375" source="u6_HCMi7Y2Q1IlWqlrbd-311" target="u6_HCMi7Y2Q1IlWqlrbd-311" edge="1">
          <mxGeometry relative="1" as="geometry" />
        </mxCell>
        <mxCell id="u6_HCMi7Y2Q1IlWqlrbd-376" value="" style="group" parent="1" vertex="1" connectable="0">
          <mxGeometry x="745.0056816890524" y="860" width="249.99863662189534" height="250" as="geometry" />
        </mxCell>
        <mxCell id="u6_HCMi7Y2Q1IlWqlrbd-348" value="Output_Register_a" style="rounded=0;whiteSpace=wrap;html=1;fontSize=24;verticalAlign=top;" parent="u6_HCMi7Y2Q1IlWqlrbd-376" vertex="1">
          <mxGeometry x="0.004318310947610371" width="249.99431831094773" height="250" as="geometry" />
        </mxCell>
        <mxCell id="u6_HCMi7Y2Q1IlWqlrbd-350" value="clk_i" style="edgeLabel;html=1;align=left;verticalAlign=middle;resizable=0;points=[];" parent="u6_HCMi7Y2Q1IlWqlrbd-376" vertex="1" connectable="0">
          <mxGeometry y="25" as="geometry" />
        </mxCell>
        <mxCell id="u6_HCMi7Y2Q1IlWqlrbd-351" value="reset_i" style="edgeLabel;html=1;align=left;verticalAlign=middle;resizable=0;points=[];" parent="u6_HCMi7Y2Q1IlWqlrbd-376" vertex="1" connectable="0">
          <mxGeometry y="75" as="geometry" />
        </mxCell>
        <mxCell id="u6_HCMi7Y2Q1IlWqlrbd-352" value="cs_i" style="edgeLabel;html=1;align=left;verticalAlign=middle;resizable=0;points=[];" parent="u6_HCMi7Y2Q1IlWqlrbd-376" vertex="1" connectable="0">
          <mxGeometry y="125" as="geometry" />
        </mxCell>
        <mxCell id="u6_HCMi7Y2Q1IlWqlrbd-353" value="load_i" style="edgeLabel;html=1;align=left;verticalAlign=middle;resizable=0;points=[];" parent="u6_HCMi7Y2Q1IlWqlrbd-376" vertex="1" connectable="0">
          <mxGeometry y="175" as="geometry" />
        </mxCell>
        <mxCell id="u6_HCMi7Y2Q1IlWqlrbd-354" value="&lt;div&gt;data_i(8)&lt;/div&gt;" style="edgeLabel;html=1;align=left;verticalAlign=middle;resizable=0;points=[];" parent="u6_HCMi7Y2Q1IlWqlrbd-376" vertex="1" connectable="0">
          <mxGeometry y="225" as="geometry" />
        </mxCell>
        <mxCell id="u6_HCMi7Y2Q1IlWqlrbd-355" value="&lt;div&gt;data_o(8)&lt;/div&gt;" style="edgeLabel;html=1;align=right;verticalAlign=middle;resizable=0;points=[];" parent="u6_HCMi7Y2Q1IlWqlrbd-376" vertex="1" connectable="0">
          <mxGeometry x="249.99431831094762" y="125" as="geometry" />
        </mxCell>
        <mxCell id="u6_HCMi7Y2Q1IlWqlrbd-349" style="edgeStyle=orthogonalEdgeStyle;rounded=0;orthogonalLoop=1;jettySize=auto;html=1;exitX=0.5;exitY=1;exitDx=0;exitDy=0;" parent="u6_HCMi7Y2Q1IlWqlrbd-376" source="u6_HCMi7Y2Q1IlWqlrbd-348" target="u6_HCMi7Y2Q1IlWqlrbd-348" edge="1">
          <mxGeometry relative="1" as="geometry" />
        </mxCell>
        <mxCell id="u6_HCMi7Y2Q1IlWqlrbd-377" value="" style="endArrow=classic;html=1;rounded=0;exitX=0.002;exitY=0.568;exitDx=0;exitDy=0;exitPerimeter=0;entryX=-0.002;entryY=0.105;entryDx=0;entryDy=0;entryPerimeter=0;fillColor=#d5e8d4;strokeColor=#82b366;" parent="1" source="u6_HCMi7Y2Q1IlWqlrbd-285" target="u6_HCMi7Y2Q1IlWqlrbd-348" edge="1">
          <mxGeometry width="50" height="50" relative="1" as="geometry">
            <mxPoint x="190" y="1380" as="sourcePoint" />
            <mxPoint x="240" y="1330" as="targetPoint" />
          </mxGeometry>
        </mxCell>
        <mxCell id="u6_HCMi7Y2Q1IlWqlrbd-378" value="" style="endArrow=classic;html=1;rounded=0;entryX=-0.002;entryY=0.163;entryDx=0;entryDy=0;entryPerimeter=0;fillColor=#d5e8d4;strokeColor=#82b366;" parent="1" target="u6_HCMi7Y2Q1IlWqlrbd-293" edge="1">
          <mxGeometry width="50" height="50" relative="1" as="geometry">
            <mxPoint x="130" y="885" as="sourcePoint" />
            <mxPoint x="90" y="1210" as="targetPoint" />
            <Array as="points">
              <mxPoint x="130" y="1290" />
            </Array>
          </mxGeometry>
        </mxCell>
        <mxCell id="u6_HCMi7Y2Q1IlWqlrbd-379" value="" style="endArrow=classic;html=1;rounded=0;entryX=-0.001;entryY=0.104;entryDx=0;entryDy=0;entryPerimeter=0;fillColor=#d5e8d4;strokeColor=#82b366;" parent="1" target="u6_HCMi7Y2Q1IlWqlrbd-311" edge="1">
          <mxGeometry width="50" height="50" relative="1" as="geometry">
            <mxPoint x="670" y="886" as="sourcePoint" />
            <mxPoint x="740" y="1110" as="targetPoint" />
            <Array as="points">
              <mxPoint x="670" y="1196" />
            </Array>
          </mxGeometry>
        </mxCell>
        <mxCell id="u6_HCMi7Y2Q1IlWqlrbd-380" value="" style="endArrow=classic;html=1;rounded=0;entryX=-0.006;entryY=0.107;entryDx=0;entryDy=0;entryPerimeter=0;fillColor=#d5e8d4;strokeColor=#82b366;" parent="1" target="u6_HCMi7Y2Q1IlWqlrbd-303" edge="1">
          <mxGeometry width="50" height="50" relative="1" as="geometry">
            <mxPoint x="670" y="1190" as="sourcePoint" />
            <mxPoint x="720" y="1270" as="targetPoint" />
            <Array as="points">
              <mxPoint x="670" y="1537" />
            </Array>
          </mxGeometry>
        </mxCell>
        <mxCell id="u6_HCMi7Y2Q1IlWqlrbd-381" value="" style="endArrow=classic;html=1;rounded=0;exitX=0.005;exitY=0.48;exitDx=0;exitDy=0;exitPerimeter=0;fillColor=#6a00ff;strokeColor=#3700CC;entryX=0.001;entryY=0.327;entryDx=0;entryDy=0;entryPerimeter=0;" parent="1" source="u6_HCMi7Y2Q1IlWqlrbd-286" target="u6_HCMi7Y2Q1IlWqlrbd-293" edge="1">
          <mxGeometry width="50" height="50" relative="1" as="geometry">
            <mxPoint x="-290" y="1380" as="sourcePoint" />
            <mxPoint x="261" y="1349" as="targetPoint" />
            <Array as="points">
              <mxPoint x="-340" y="1198" />
              <mxPoint x="-340" y="1332" />
            </Array>
          </mxGeometry>
        </mxCell>
        <mxCell id="u6_HCMi7Y2Q1IlWqlrbd-382" value="" style="endArrow=classic;html=1;rounded=0;entryX=0.001;entryY=0.301;entryDx=0;entryDy=0;entryPerimeter=0;fillColor=#6a00ff;strokeColor=#3700CC;" parent="1" target="u6_HCMi7Y2Q1IlWqlrbd-311" edge="1">
          <mxGeometry width="50" height="50" relative="1" as="geometry">
            <mxPoint x="190" y="1330" as="sourcePoint" />
            <mxPoint x="640" y="1260" as="targetPoint" />
            <Array as="points">
              <mxPoint x="190" y="1245" />
            </Array>
          </mxGeometry>
        </mxCell>
        <mxCell id="u6_HCMi7Y2Q1IlWqlrbd-383" value="" style="endArrow=classic;html=1;rounded=0;entryX=-0.002;entryY=0.3;entryDx=0;entryDy=0;entryPerimeter=0;fillColor=#6a00ff;strokeColor=#3700CC;" parent="1" target="u6_HCMi7Y2Q1IlWqlrbd-348" edge="1">
          <mxGeometry width="50" height="50" relative="1" as="geometry">
            <mxPoint x="710" y="1245" as="sourcePoint" />
            <mxPoint x="710" y="1150" as="targetPoint" />
            <Array as="points">
              <mxPoint x="710" y="935" />
            </Array>
          </mxGeometry>
        </mxCell>
        <mxCell id="u6_HCMi7Y2Q1IlWqlrbd-385" value="" style="endArrow=classic;html=1;rounded=0;entryX=-0.01;entryY=0.528;entryDx=0;entryDy=0;entryPerimeter=0;exitX=1;exitY=0.5;exitDx=0;exitDy=0;" parent="1" source="u6_HCMi7Y2Q1IlWqlrbd-348" target="u6_HCMi7Y2Q1IlWqlrbd-290" edge="1">
          <mxGeometry width="50" height="50" relative="1" as="geometry">
            <mxPoint x="1060" y="1020" as="sourcePoint" />
            <mxPoint x="1110" y="970" as="targetPoint" />
          </mxGeometry>
        </mxCell>
        <mxCell id="u6_HCMi7Y2Q1IlWqlrbd-386" value="" style="endArrow=classic;html=1;rounded=0;entryX=-0.015;entryY=0.507;entryDx=0;entryDy=0;entryPerimeter=0;exitX=1;exitY=0.5;exitDx=0;exitDy=0;" parent="1" source="u6_HCMi7Y2Q1IlWqlrbd-311" target="u6_HCMi7Y2Q1IlWqlrbd-291" edge="1">
          <mxGeometry width="50" height="50" relative="1" as="geometry">
            <mxPoint x="1100" y="1320" as="sourcePoint" />
            <mxPoint x="1150" y="1270" as="targetPoint" />
          </mxGeometry>
        </mxCell>
        <mxCell id="u6_HCMi7Y2Q1IlWqlrbd-393" value="" style="endArrow=classic;html=1;rounded=0;entryX=0;entryY=0.5;entryDx=0;entryDy=0;fillColor=#f0a30a;strokeColor=#BD7000;" parent="1" target="u6_HCMi7Y2Q1IlWqlrbd-303" edge="1">
          <mxGeometry width="50" height="50" relative="1" as="geometry">
            <mxPoint x="610" y="1350" as="sourcePoint" />
            <mxPoint x="640" y="1430" as="targetPoint" />
            <Array as="points">
              <mxPoint x="610" y="1635" />
            </Array>
          </mxGeometry>
        </mxCell>
        <mxCell id="9dOAVIo0_q9MPd1h_VvT-1" value="" style="group" vertex="1" connectable="0" parent="1">
          <mxGeometry x="300" y="1760" width="250" height="190" as="geometry" />
        </mxCell>
        <mxCell id="9dOAVIo0_q9MPd1h_VvT-2" value="Stack" style="rounded=0;whiteSpace=wrap;html=1;container=0;verticalAlign=top;fontSize=24;" vertex="1" parent="9dOAVIo0_q9MPd1h_VvT-1">
          <mxGeometry x="0.003881830316721846" width="249.99611816968326" height="190" as="geometry" />
        </mxCell>
        <mxCell id="9dOAVIo0_q9MPd1h_VvT-3" value="&lt;div&gt;addr_o (8)&lt;/div&gt;" style="edgeLabel;html=1;align=right;verticalAlign=middle;resizable=0;points=[];container=0;" vertex="1" connectable="0" parent="9dOAVIo0_q9MPd1h_VvT-1">
          <mxGeometry x="244.7941537667271" y="94.9992631554951" as="geometry" />
        </mxCell>
        <mxCell id="9dOAVIo0_q9MPd1h_VvT-4" value="addr_i (8)" style="edgeLabel;html=1;align=left;verticalAlign=middle;resizable=0;points=[];container=0;" vertex="1" connectable="0" parent="9dOAVIo0_q9MPd1h_VvT-1">
          <mxGeometry x="0.007817867957110139" y="50.00346427418533" as="geometry" />
        </mxCell>
        <mxCell id="9dOAVIo0_q9MPd1h_VvT-5" value="&lt;div&gt;push_pop_i (2)&lt;br&gt;&lt;/div&gt;" style="edgeLabel;html=1;align=left;verticalAlign=middle;resizable=0;points=[];container=0;" vertex="1" connectable="0" parent="9dOAVIo0_q9MPd1h_VvT-1">
          <mxGeometry y="80" as="geometry" />
        </mxCell>
        <mxCell id="9dOAVIo0_q9MPd1h_VvT-6" value="clk_i" style="edgeLabel;html=1;align=left;verticalAlign=middle;resizable=0;points=[];container=0;" vertex="1" connectable="0" parent="9dOAVIo0_q9MPd1h_VvT-1">
          <mxGeometry x="0.007817867957111702" y="110" as="geometry" />
        </mxCell>
        <mxCell id="9dOAVIo0_q9MPd1h_VvT-7" value="reset_i" style="edgeLabel;html=1;align=left;verticalAlign=middle;resizable=0;points=[];container=0;" vertex="1" connectable="0" parent="9dOAVIo0_q9MPd1h_VvT-1">
          <mxGeometry x="0.007817867957101043" y="140" as="geometry" />
        </mxCell>
        <mxCell id="9dOAVIo0_q9MPd1h_VvT-10" value="" style="endArrow=classic;html=1;rounded=0;entryX=0;entryY=0.75;entryDx=0;entryDy=0;fillColor=#e1d5e7;strokeColor=#3700CC;" edge="1" parent="1" target="9dOAVIo0_q9MPd1h_VvT-2">
          <mxGeometry width="50" height="50" relative="1" as="geometry">
            <mxPoint x="-540" y="1197" as="sourcePoint" />
            <mxPoint x="-540" y="1380" as="targetPoint" />
            <Array as="points">
              <mxPoint x="-540" y="1700" />
              <mxPoint x="-540" y="1900" />
              <mxPoint x="-260" y="1900" />
            </Array>
          </mxGeometry>
        </mxCell>
        <mxCell id="9dOAVIo0_q9MPd1h_VvT-11" value="" style="endArrow=classic;html=1;rounded=0;entryX=0.001;entryY=0.585;entryDx=0;entryDy=0;entryPerimeter=0;strokeColor=#82B366;" edge="1" parent="1" target="9dOAVIo0_q9MPd1h_VvT-2">
          <mxGeometry width="50" height="50" relative="1" as="geometry">
            <mxPoint x="-660" y="882" as="sourcePoint" />
            <mxPoint x="-160" y="1370" as="targetPoint" />
            <Array as="points">
              <mxPoint x="-660" y="1390" />
              <mxPoint x="-250" y="1390" />
              <mxPoint x="-250" y="1871" />
            </Array>
          </mxGeometry>
        </mxCell>
        <mxCell id="9dOAVIo0_q9MPd1h_VvT-12" value="" style="endArrow=classic;html=1;rounded=0;entryX=-0.01;entryY=0.423;entryDx=0;entryDy=0;entryPerimeter=0;exitX=1.008;exitY=0.163;exitDx=0;exitDy=0;exitPerimeter=0;fillColor=#dae8fc;strokeColor=#6c8ebf;" edge="1" parent="1" source="u6_HCMi7Y2Q1IlWqlrbd-293" target="9dOAVIo0_q9MPd1h_VvT-2">
          <mxGeometry width="50" height="50" relative="1" as="geometry">
            <mxPoint x="370" y="1540" as="sourcePoint" />
            <mxPoint x="420" y="1490" as="targetPoint" />
            <Array as="points">
              <mxPoint x="620" y="1290" />
              <mxPoint x="620" y="1600" />
              <mxPoint x="240" y="1600" />
              <mxPoint x="240" y="1840" />
            </Array>
          </mxGeometry>
        </mxCell>
        <mxCell id="9dOAVIo0_q9MPd1h_VvT-13" style="edgeStyle=orthogonalEdgeStyle;rounded=0;orthogonalLoop=1;jettySize=auto;html=1;exitX=1;exitY=0.5;exitDx=0;exitDy=0;entryX=0;entryY=0.5;entryDx=0;entryDy=0;" edge="1" parent="1" source="9dOAVIo0_q9MPd1h_VvT-2" target="u6_HCMi7Y2Q1IlWqlrbd-293">
          <mxGeometry relative="1" as="geometry">
            <Array as="points">
              <mxPoint x="570" y="1855" />
              <mxPoint x="570" y="1630" />
              <mxPoint x="230" y="1630" />
              <mxPoint x="230" y="1375" />
            </Array>
          </mxGeometry>
        </mxCell>
        <mxCell id="9dOAVIo0_q9MPd1h_VvT-16" value="" style="endArrow=classic;html=1;rounded=0;entryX=0;entryY=0.25;entryDx=0;entryDy=0;strokeColor=#A50040;" edge="1" parent="1" target="9dOAVIo0_q9MPd1h_VvT-2">
          <mxGeometry width="50" height="50" relative="1" as="geometry">
            <mxPoint x="560" y="1330" as="sourcePoint" />
            <mxPoint x="630" y="1330" as="targetPoint" />
            <Array as="points">
              <mxPoint x="560" y="1560" />
              <mxPoint x="260" y="1560" />
              <mxPoint x="260" y="1808" />
            </Array>
          </mxGeometry>
        </mxCell>
      </root>
    </mxGraphModel>
  </diagram>
</mxfile>
